# xmcd
#
# Track frame offsets:
#	150
#	12572
#	23630
#	36428
#	50125
#	60260
#	72020
#	83352
#	92516
#	103103
#	113339
#	128619
#	138606
#	150382
#	161844
#	179336
#	192966
#	203975
#	218768
#	233512
#	249513
#	260002
#	272336
#	282127
#
# Disc length: 3945 seconds
#
# Revision: 0
# Processed by: cddbd v1.5.2PL0 Copyright (c) Steve Scherf et al.
# Submitted via: audiograbber 1.83.01
#
DISCID=400f6718
DTITLE=Frankie Laine - Eight Classic Albums  [CD4)
DYEAR=1900
DGENRE=
TTITLE0=The Hard Way
TTITLE1=Camptown Races
TTITLE2=Luck Be A Lady
TTITLE3=Get Rich Quick
TTITLE4=Horses And Women
TTITLE5=Moonlight Gambler
TTITLE6=Ace In The Hole
TTITLE7=The Man Who Broke The Bank At Monte Carlo
TTITLE8=Dead Man's Hand
TTITLE9=The Roving Gambler
TTITLE10=Deuces Wild
TTITLE11=Gamblin' Woman
TTITLE12=Song Of The Open Road
TTITLE13=North To Alaska
TTITLE14=The Swamp Girl
TTITLE15=Beyond The Blue Horizon 
TTITLE16=Call Of The Wild
TTITLE17=On The Trail
TTITLE18=The Wayfarling Stranger
TTITLE19=Tumbling Tumbleweeds
TTITLE20=The High Road
TTITLE21=Rolling Stone
TTITLE22=The New Frontier
TTITLE23=The Girl In The Wood
EXTD=
EXTT0=
EXTT1=
EXTT2=
EXTT3=
EXTT4=
EXTT5=
EXTT6=
EXTT7=
EXTT8=
EXTT9=
EXTT10=
EXTT11=
EXTT12=
EXTT13=
EXTT14=
EXTT15=
EXTT16=
EXTT17=
EXTT18=
EXTT19=
EXTT20=
EXTT21=
EXTT22=
EXTT23=
PLAYORDER=
